<svg width="116" height="22" viewBox="0 0 116 22" fill="none" xmlns="http://www.w3.org/2000/svg">
<path d="M0.858191 20.4374C0.155535 20.4484 -0.15381 20.0474 0.0737799 19.4773C0.620658 18.1063 1.20068 16.7474 1.77518 15.3873C2.68001 13.2462 3.58927 11.1084 4.49962 8.97064C5.28293 7.13003 6.06955 5.29164 6.85728 3.45325C7.20529 2.64122 7.57319 1.83802 7.90905 1.02157C8.04605 0.686819 8.26038 0.53767 8.6117 0.560871C8.94646 0.582967 9.12875 0.718858 9.28232 1.06245C9.84246 2.3164 10.4766 3.53721 11.0688 4.77791C12.167 7.077 13.2574 9.37942 14.3434 11.6829C14.6263 12.2839 14.4848 12.6286 13.9081 12.9623C11.3461 14.4427 8.78958 15.932 6.22864 17.4147C4.54271 18.3913 2.85236 19.3613 1.16091 20.3291C1.04048 20.3987 0.894649 20.4241 0.857086 20.4374H0.858191Z" fill="#A3E67E"/>
<path d="M12.3491 21.7654C10.5449 21.7654 8.74079 21.7764 6.93775 21.7543C6.6505 21.751 6.29917 21.6715 6.09368 21.4936C5.75229 21.1986 5.89481 20.6241 6.3511 20.3501C7.37083 19.737 8.40382 19.1437 9.4346 18.5493C11.2476 17.5042 13.0562 16.4491 14.8835 15.4282C15.7187 14.9609 15.9386 15.0493 16.3529 15.9088C17.0898 17.439 17.8168 18.9746 18.536 20.5136C18.895 21.2815 18.568 21.7654 17.7063 21.7665C15.9209 21.7687 14.1355 21.7665 12.3502 21.7665L12.3491 21.7654Z" fill="#A3E67E"/>
<path d="M21.6308 8.14423C21.4364 8.39612 21.3148 8.68337 21.0994 8.81042C19.9824 9.46999 18.8456 10.0975 17.7054 10.7195C17.1696 11.0123 16.7896 10.8886 16.5321 10.3417C15.129 7.37087 13.7315 4.39894 12.3405 1.4226C12.1748 1.06796 12.0831 0.682382 12.4698 0.387399C12.7979 0.136609 13.1072 0.207316 13.4033 0.469155C13.9613 0.963002 14.5369 1.43807 15.0893 1.93854C16.4139 3.14057 17.7264 4.35585 19.0478 5.5612C19.7747 6.22408 20.5172 6.87039 21.2386 7.5399C21.3833 7.67469 21.464 7.88018 21.6319 8.14423H21.6308Z" fill="#A3E67E"/>
<path d="M21.9412 15.6038C21.9412 16.5772 21.918 17.5516 21.9523 18.5238C21.9677 18.947 21.8108 19.211 21.4363 19.3038C21.0574 19.3966 20.7812 19.2011 20.6132 18.8453C19.9956 17.5417 19.3714 16.2424 18.7538 14.9399C18.6157 14.6482 18.4975 14.3455 18.3694 14.0494C18.2213 13.7058 18.3473 13.4484 18.6423 13.2694C19.4112 12.8021 20.1801 12.3336 20.9635 11.8906C21.4164 11.6332 21.9335 11.9735 21.9379 12.5192C21.9467 13.5478 21.9401 14.5764 21.9401 15.6049L21.9412 15.6038Z" fill="#A3E67E"/>
<path d="M65.7609 8.85567C65.7609 7.71407 65.7609 6.71709 65.7609 5.71883C65.7609 4.72057 65.7609 3.72615 65.7609 2.69846H69.1627V19.6471H66.0387V17.7056C65.2196 18.8562 64.2853 19.5524 63.049 19.8212C60.8413 20.3011 58.8691 19.427 57.6085 17.8272C56.5744 16.5141 56.1047 14.9579 56.1802 13.3069C56.2813 11.1005 57.0722 9.21018 58.9907 7.90221C60.8285 6.64926 63.8438 6.67998 65.3744 8.49604C65.4551 8.59075 65.5562 8.66754 65.7597 8.85567H65.7609ZM65.8083 13.5001C65.7494 13.1072 65.743 12.6977 65.6202 12.3265C65.2874 11.3232 64.6769 10.5412 63.6198 10.2302C62.5255 9.90769 61.5375 10.1636 60.7274 10.9533C59.6076 12.0463 59.4783 13.4118 59.9339 14.8056C60.4625 16.422 62.1723 17.2564 63.6633 16.7445C64.9841 16.2914 65.7609 15.0935 65.8083 13.5001Z" fill="#101828"/>
<path d="M42.4645 8.97853V7.44786H45.6206V19.6318H42.4837V18.0217C42.0384 18.4287 41.6992 18.8191 41.2871 19.1019C39.4326 20.3702 36.9063 20.2358 35.1376 18.8191C33.5263 17.5277 32.8006 15.8345 32.7277 13.7907C32.6713 12.2037 32.9759 10.7204 33.9064 9.44311C35.6738 7.01529 38.7428 6.22052 41.2807 7.91884C41.6954 8.19656 42.0332 8.58691 42.4645 8.97853ZM42.3378 13.4592C42.1497 12.8487 42.055 12.1858 41.7555 11.6367C40.564 9.45078 37.8943 9.77842 36.8692 11.3526C36.2139 12.3585 36.0194 13.4003 36.324 14.524C36.7629 16.1404 38.2027 17.2743 40.1429 16.7714C41.3357 16.4616 42.3302 14.7518 42.3366 13.4592H42.3378Z" fill="#101828"/>
<path d="M89.3353 19.9338C85.5035 20.0887 82.7647 17.108 82.7967 13.5002C82.8299 9.81939 85.4817 6.85917 89.7 7.0153C93.1824 7.14457 96.03 9.72085 95.9532 13.7075C95.8892 17.0465 93.2592 20.1424 89.3353 19.9338ZM92.3774 13.4451C92.3774 13.2327 92.4094 12.9511 92.3684 12.6811C92.3313 12.4392 92.2238 12.205 92.1291 11.9746C91.2486 9.81811 88.6941 9.54295 87.3989 10.8816C86.5593 11.7494 86.2112 12.7771 86.3686 13.9302C86.6822 16.23 88.2321 17.355 90.4526 16.733C91.4393 16.4565 92.5233 15.0974 92.3774 13.4438V13.4451Z" fill="#101828"/>
<path d="M103.695 7.41968H106.925V8.94011C108.129 7.59117 109.545 6.99734 111.216 7.01781C113.45 7.04469 115.302 8.66494 115.381 10.8138C115.488 13.7394 115.408 16.6728 115.408 19.6394H112.092V18.9662C112.092 16.8763 112.074 14.785 112.098 12.6951C112.115 11.2297 111.415 10.2878 110.003 10.1022C109.033 9.9742 107.641 10.5527 107.23 11.9259C107.076 12.4404 106.98 12.992 106.972 13.527C106.943 15.5491 106.961 17.5725 106.961 19.6356H103.695V7.41968Z" fill="#101828"/>
<path d="M82.5407 9.4815C81.7997 10.0894 81.0984 10.6922 80.3586 11.24C80.2524 11.318 79.8787 11.199 79.7533 11.0595C78.7755 9.97935 77.1987 9.7605 75.9253 10.5694C75.1101 11.0877 74.625 11.8441 74.4894 12.7527C74.3435 13.7331 74.4126 14.716 75.0192 15.5952C76.0443 17.0824 78.3467 17.3473 79.6483 16.0918C79.8147 15.9318 79.9376 15.7283 80.0668 15.5645C80.9525 16.2812 81.7472 16.9262 82.5369 17.5661C80.5391 20.639 75.4799 20.4406 73.2735 18.6988C70.1392 16.2249 70.1943 11.144 72.8384 8.71489C75.4108 6.35106 80.1615 6.25891 82.5407 9.47894V9.4815Z" fill="#101828"/>
<path d="M56.0639 7.06522C55.982 7.79216 55.9141 8.49606 55.8207 9.19484C55.7695 9.58135 55.8002 10.124 55.5686 10.3032C55.3216 10.4939 54.8071 10.3262 54.4091 10.3364C52.9654 10.3748 51.6011 11.7775 51.5474 13.3248C51.4821 15.1908 51.4565 17.0581 51.4143 18.924C51.4092 19.1531 51.4143 19.3835 51.4143 19.6446H48.1431V7.43893H51.3772V9.26139C52.5303 7.46324 54.0494 6.82717 56.0639 7.06522Z" fill="#101828"/>
<path d="M101.154 19.6625H97.8081V7.44147H101.154V19.6625Z" fill="#101828"/>
<path d="M101.458 4.02947C101.458 5.22738 100.698 5.97992 99.4871 5.9812C98.2534 5.98248 97.5021 5.22482 97.5034 3.97828C97.5034 2.78037 98.2636 2.02783 99.4743 2.02655C100.708 2.02527 101.459 2.78293 101.458 4.02947Z" fill="#101828"/>
</svg>
